<svg width="32" height="32" xmlns="http://www.w3.org/2000/svg"><rect width="32" height="32" fill="#FFFFFF"/><rect x="1" y="1" width="5" height="5" fill="#B90000" stroke="#cccccc" stroke-width="0.5"/><rect x="6" y="1" width="5" height="5" fill="#B90000" stroke="#cccccc" stroke-width="0.5"/><rect x="11" y="1" width="5" height="5" fill="#FFFFFF" stroke="#cccccc" stroke-width="0.5"/><rect x="16" y="1" width="5" height="5" fill="#0045AD" stroke="#cccccc" stroke-width="0.5"/><rect x="21" y="1" width="5" height="5" fill="#0045AD" stroke="#cccccc" stroke-width="0.5"/><rect x="26" y="1" width="5" height="5" fill="#FFFFFF" stroke="#cccccc" stroke-width="0.5"/><rect x="1" y="6" width="5" height="5" fill="#B90000" stroke="#cccccc" stroke-width="0.5"/><rect x="6" y="6" width="5" height="5" fill="#FFFFFF" stroke="#cccccc" stroke-width="0.5"/><rect x="11" y="6" width="5" height="5" fill="#B90000" stroke="#cccccc" stroke-width="0.5"/><rect x="16" y="6" width="5" height="5" fill="#0045AD" stroke="#cccccc" stroke-width="0.5"/><rect x="21" y="6" width="5" height="5" fill="#FFFFFF" stroke="#cccccc" stroke-width="0.5"/><rect x="26" y="6" width="5" height="5" fill="#0045AD" stroke="#cccccc" stroke-width="0.5"/><rect x="1" y="11" width="5" height="5" fill="#B90000" stroke="#cccccc" stroke-width="0.5"/><rect x="6" y="11" width="5" height="5" fill="#B90000" stroke="#cccccc" stroke-width="0.5"/><rect x="11" y="11" width="5" height="5" fill="#FFFFFF" stroke="#cccccc" stroke-width="0.5"/><rect x="16" y="11" width="5" height="5" fill="#0045AD" stroke="#cccccc" stroke-width="0.5"/><rect x="21" y="11" width="5" height="5" fill="#0045AD" stroke="#cccccc" stroke-width="0.5"/><rect x="26" y="11" width="5" height="5" fill="#FFFFFF" stroke="#cccccc" stroke-width="0.5"/><rect x="1" y="16" width="5" height="5" fill="#FFFFFF" stroke="#cccccc" stroke-width="0.5"/><rect x="6" y="16" width="5" height="5" fill="#FFFFFF" stroke="#cccccc" stroke-width="0.5"/><rect x="11" y="16" width="5" height="5" fill="#FFFFFF" stroke="#cccccc" stroke-width="0.5"/><rect x="16" y="16" width="5" height="5" fill="#FFFFFF" stroke="#cccccc" stroke-width="0.5"/><rect x="21" y="16" width="5" height="5" fill="#FFFFFF" stroke="#cccccc" stroke-width="0.5"/><rect x="26" y="16" width="5" height="5" fill="#FFFFFF" stroke="#cccccc" stroke-width="0.5"/><rect x="1" y="21" width="5" height="5" fill="#FF5900" stroke="#cccccc" stroke-width="0.5"/><rect x="6" y="21" width="5" height="5" fill="#FF5900" stroke="#cccccc" stroke-width="0.5"/><rect x="11" y="21" width="5" height="5" fill="#FF5900" stroke="#cccccc" stroke-width="0.5"/><rect x="16" y="21" width="5" height="5" fill="#009B48" stroke="#cccccc" stroke-width="0.5"/><rect x="21" y="21" width="5" height="5" fill="#FFFFFF" stroke="#cccccc" stroke-width="0.5"/><rect x="26" y="21" width="5" height="5" fill="#009B48" stroke="#cccccc" stroke-width="0.5"/><rect x="1" y="26" width="5" height="5" fill="#FF5900" stroke="#cccccc" stroke-width="0.5"/><rect x="6" y="26" width="5" height="5" fill="#FFFFFF" stroke="#cccccc" stroke-width="0.5"/><rect x="11" y="26" width="5" height="5" fill="#FF5900" stroke="#cccccc" stroke-width="0.5"/><rect x="16" y="26" width="5" height="5" fill="#009B48" stroke="#cccccc" stroke-width="0.5"/><rect x="21" y="26" width="5" height="5" fill="#009B48" stroke="#cccccc" stroke-width="0.5"/><rect x="26" y="26" width="5" height="5" fill="#009B48" stroke="#cccccc" stroke-width="0.5"/></svg>